<svg width="244" height="116" viewBox="0 0 244 116" fill="none" xmlns="http://www.w3.org/2000/svg">
<g filter="url(#filter0_d_1095_1946)">
<rect x="23" y="23" width="197.581" height="70" rx="13.5484" fill="white" shape-rendering="crispEdges"/>
<path d="M69.5878 58.9139C69.6163 56.6996 70.8054 54.6045 72.6918 53.4447C71.5018 51.7451 69.5085 50.6675 67.4347 50.6026C65.2228 50.3705 63.0784 51.9262 61.9513 51.9262C60.8023 51.9262 59.0669 50.6257 57.1981 50.6641C54.7623 50.7428 52.4915 52.1277 51.3064 54.2573C48.7589 58.6679 50.6591 65.1499 53.0994 68.715C54.3203 70.4608 55.7472 72.4109 57.6143 72.3417C59.4413 72.2659 60.1237 71.1767 62.3291 71.1767C64.514 71.1767 65.1542 72.3417 67.0591 72.2977C69.0196 72.2659 70.2548 70.5442 71.4329 68.7819C72.3102 67.538 72.9852 66.1632 73.433 64.7085C71.129 63.734 69.5905 61.4154 69.5878 58.9139Z" fill="#282828"/>
<path d="M65.9896 48.258C67.0585 46.9748 67.5852 45.3254 67.4577 43.6602C65.8245 43.8317 64.316 44.6122 63.2326 45.8462C62.1732 47.0519 61.6219 48.6722 61.7261 50.2738C63.3598 50.2907 64.9659 49.5313 65.9896 48.258Z" fill="#282828"/>
<path d="M83.6118 52.1953H86.7336C89.6578 52.1953 91.7389 50.3117 91.7389 47.6641C91.7389 45.0165 89.6578 43.1461 86.7336 43.1461H83.6118V52.1953ZM84.9422 50.9835V44.3579H86.8126C88.907 44.3579 90.369 45.7278 90.369 47.6641C90.369 49.6136 88.907 50.9835 86.8126 50.9835H84.9422ZM96.6748 52.3534C98.611 52.3534 100.244 50.72 100.244 48.7838C100.244 46.8475 98.611 45.2273 96.6748 45.2273C94.7253 45.2273 93.0788 46.8475 93.0788 48.7838C93.0788 50.72 94.7253 52.3534 96.6748 52.3534ZM96.6748 51.2206C95.4234 51.2206 94.3828 50.1141 94.3828 48.7838C94.3828 47.4665 95.4234 46.3601 96.6748 46.3601C97.8998 46.3601 98.9403 47.4665 98.9403 48.7838C98.9403 50.1141 97.8998 51.2206 96.6748 51.2206ZM103.213 52.1953H104.411L106.058 47.1372L107.691 52.1953H108.89L111.182 45.3854H109.851L108.297 50.4566L106.611 45.3854H105.505L103.819 50.4566L102.251 45.3854H100.921L103.213 52.1953ZM115.962 45.2273C115.04 45.2273 114.211 45.7015 113.802 46.3733V45.3854H112.498V52.1953H113.802V47.7827C113.908 46.9792 114.724 46.3601 115.673 46.3601C116.595 46.3601 117.24 47.0714 117.24 48.0856V52.1953H118.518V47.8617C118.518 46.3206 117.464 45.2273 115.962 45.2273ZM120.383 52.1953H121.674V42.9881H120.383V52.1953ZM126.801 52.3534C128.737 52.3534 130.37 50.72 130.37 48.7838C130.37 46.8475 128.737 45.2273 126.801 45.2273C124.851 45.2273 123.205 46.8475 123.205 48.7838C123.205 50.72 124.851 52.3534 126.801 52.3534ZM126.801 51.2206C125.549 51.2206 124.509 50.1141 124.509 48.7838C124.509 47.4665 125.549 46.3601 126.801 46.3601C128.026 46.3601 129.066 47.4665 129.066 48.7838C129.066 50.1141 128.026 51.2206 126.801 51.2206ZM134.754 45.2273C134.004 45.2273 133.147 45.4249 132.173 45.9122L132.647 46.8738C133.24 46.5708 133.898 46.3074 134.57 46.3074C135.927 46.3074 136.322 47.2163 136.322 48.0725V48.2832C135.663 48.0593 134.939 47.9144 134.267 47.9144C132.765 47.9144 131.54 48.8233 131.54 50.18C131.54 51.5104 132.607 52.3534 134.056 52.3534C134.886 52.3534 135.821 51.9714 136.322 51.2601V52.1953H137.6V48.0725C137.6 46.3864 136.585 45.2273 134.754 45.2273ZM134.307 51.326C133.45 51.326 132.792 50.8781 132.792 50.1405C132.792 49.4028 133.556 48.8891 134.465 48.8891C135.136 48.8891 135.769 48.9813 136.322 49.1526V50.0614C136.098 50.9045 135.15 51.326 134.307 51.326ZM144.728 42.9881V46.5577C144.201 45.7278 143.358 45.2273 142.304 45.2273C140.513 45.2273 139.169 46.7026 139.169 48.7838C139.169 50.8781 140.513 52.3534 142.304 52.3534C143.358 52.3534 144.201 51.8528 144.728 51.0098V52.1953H146.019V42.9881H144.728ZM142.62 51.2206C141.369 51.2206 140.487 50.2063 140.487 48.7838C140.487 47.3612 141.369 46.3601 142.62 46.3601C143.845 46.3601 144.728 47.3612 144.728 48.7838C144.728 50.2063 143.845 51.2206 142.62 51.2206ZM154.971 52.3534C156.908 52.3534 158.541 50.72 158.541 48.7838C158.541 46.8475 156.908 45.2273 154.971 45.2273C153.022 45.2273 151.375 46.8475 151.375 48.7838C151.375 50.72 153.022 52.3534 154.971 52.3534ZM154.971 51.2206C153.72 51.2206 152.679 50.1141 152.679 48.7838C152.679 47.4665 153.72 46.3601 154.971 46.3601C156.196 46.3601 157.237 47.4665 157.237 48.7838C157.237 50.1141 156.196 51.2206 154.971 51.2206ZM163.531 45.2273C162.609 45.2273 161.779 45.7015 161.371 46.3733V45.3854H160.067V52.1953H161.371V47.7827C161.476 46.9792 162.293 46.3601 163.241 46.3601C164.163 46.3601 164.809 47.0714 164.809 48.0856V52.1953H166.086V47.8617C166.086 46.3206 165.033 45.2273 163.531 45.2273ZM174.909 50.9703C174.764 51.1152 174.5 51.2206 174.21 51.2206C173.828 51.2206 173.512 50.8781 173.512 50.4039V46.4918H175.119V45.3854H173.512V43.5149H172.235V45.3854H171.207V46.4918H172.235V50.4961C172.235 51.5894 172.972 52.3534 174.026 52.3534C174.513 52.3534 175.014 52.169 175.383 51.866L174.909 50.9703ZM180.176 45.2273C179.241 45.2273 178.411 45.7147 178.003 46.3996V42.9881H176.712V52.1953H178.003V47.9671C178.003 47.0846 178.859 46.3601 179.886 46.3601C180.808 46.3601 181.454 47.0714 181.454 48.0856V52.1953H182.732V47.8617C182.732 46.3206 181.678 45.2273 180.176 45.2273ZM187.719 51.1942C186.547 51.1942 185.717 50.3776 185.546 49.2448H190.907C190.907 46.8079 189.708 45.2273 187.627 45.2273C185.743 45.2273 184.228 46.7289 184.228 48.7706C184.228 50.8649 185.835 52.3534 187.732 52.3534C188.694 52.3534 189.879 51.945 190.485 51.2996L189.668 50.4566C189.26 50.8781 188.43 51.1942 187.719 51.1942ZM187.679 46.3864C188.852 46.3864 189.497 47.1504 189.642 48.2042H185.559C185.769 47.0977 186.626 46.3864 187.679 46.3864Z" fill="#282828"/>
<path d="M93.014 70.3672H96.0752L90.9117 57.6983H87.869L82.7056 70.3672H85.7483L86.5597 68.3756H92.2026L93.014 70.3672ZM87.5002 66.0705L89.3811 61.4418L91.2621 66.0705H87.5002ZM103.377 60.612C102.05 60.612 100.943 61.1836 100.187 62.161V60.8333H97.4947V73.539H100.187V69.021C100.943 70.0168 102.05 70.5885 103.377 70.5885C105.922 70.5885 107.766 68.5231 107.766 65.591C107.766 62.6773 105.922 60.612 103.377 60.612ZM102.603 68.3203C101.294 68.3203 100.335 67.3613 100.187 65.9598V65.2222C100.335 63.8391 101.294 62.8802 102.603 62.8802C104.097 62.8802 105.148 64.0051 105.148 65.591C105.148 67.1954 104.097 68.3203 102.603 68.3203ZM115.551 60.612C114.223 60.612 113.117 61.1836 112.361 62.161V60.8333H109.669V73.539H112.361V69.021C113.117 70.0168 114.223 70.5885 115.551 70.5885C118.096 70.5885 119.94 68.5231 119.94 65.591C119.94 62.6773 118.096 60.612 115.551 60.612ZM114.777 68.3203C113.467 68.3203 112.508 67.3613 112.361 65.9598V65.2222C112.508 63.8391 113.467 62.8802 114.777 62.8802C116.27 62.8802 117.321 64.0051 117.321 65.591C117.321 67.1954 116.27 68.3203 114.777 68.3203ZM131.861 70.5885C134.959 70.5885 136.785 68.9841 136.785 66.5684C136.785 64.2264 134.978 63.415 132.249 62.8064C130.294 62.3639 129.538 62.0688 129.538 61.1468C129.538 60.3907 130.238 59.7821 131.4 59.7821C132.617 59.7821 133.89 60.28 135.015 61.1836L136.435 59.2289C135.144 58.1225 133.539 57.477 131.474 57.477C128.708 57.477 126.79 59.0814 126.79 61.4234C126.79 63.876 128.689 64.6321 131.363 65.2406C133.3 65.6832 134.037 65.9598 134.037 66.8634C134.037 67.6564 133.337 68.2834 131.972 68.2834C130.368 68.2834 129.003 67.6564 127.804 66.6237L126.237 68.4862C127.712 69.8508 129.667 70.5885 131.861 70.5885ZM143.678 68.0068C143.494 68.1912 143.125 68.3203 142.756 68.3203C142.258 68.3203 141.853 67.8777 141.853 67.2507V63.0093H143.918V60.8333H141.853V58.2147H139.271V60.8333H137.962V63.0093H139.271V67.6748C139.271 69.3898 140.451 70.5885 142.129 70.5885C142.904 70.5885 143.771 70.2565 144.324 69.7586L143.678 68.0068ZM150.694 70.5885C153.515 70.5885 155.876 68.3018 155.876 65.591C155.876 62.8802 153.515 60.612 150.694 60.612C147.854 60.612 145.475 62.8802 145.475 65.591C145.475 68.3018 147.854 70.5885 150.694 70.5885ZM150.694 68.3203C149.256 68.3203 148.057 67.0663 148.057 65.591C148.057 64.1157 149.256 62.8802 150.694 62.8802C152.114 62.8802 153.313 64.1157 153.313 65.591C153.313 67.0663 152.114 68.3203 150.694 68.3203ZM160.39 62.6036V60.8333H157.698V70.3672H160.39V65.8123C160.39 64.0235 161.662 62.8802 163.654 62.8802V60.612C162.197 60.612 161.017 61.368 160.39 62.6036ZM169.707 68.2096C168.582 68.2096 167.752 67.5089 167.439 66.4762H174.317C174.317 62.8802 172.565 60.612 169.578 60.612C166.793 60.612 164.672 62.6958 164.672 65.5726C164.672 68.5047 166.885 70.5885 169.725 70.5885C171.127 70.5885 172.768 69.9984 173.616 69.1132L171.901 67.3613C171.385 67.8592 170.463 68.2096 169.707 68.2096ZM169.688 62.9908C170.776 62.9908 171.477 63.5994 171.735 64.5399H167.475C167.826 63.581 168.674 62.9908 169.688 62.9908Z" fill="#282828"/>
</g>
<defs>
<filter id="filter0_d_1095_1946" x="0.419355" y="0.419355" width="242.742" height="115.161" filterUnits="userSpaceOnUse" color-interpolation-filters="sRGB">
<feFlood flood-opacity="0" result="BackgroundImageFix"/>
<feColorMatrix in="SourceAlpha" type="matrix" values="0 0 0 0 0 0 0 0 0 0 0 0 0 0 0 0 0 0 127 0" result="hardAlpha"/>
<feOffset/>
<feGaussianBlur stdDeviation="11.2903"/>
<feComposite in2="hardAlpha" operator="out"/>
<feColorMatrix type="matrix" values="0 0 0 0 0 0 0 0 0 0 0 0 0 0 0 0 0 0 0.1 0"/>
<feBlend mode="normal" in2="BackgroundImageFix" result="effect1_dropShadow_1095_1946"/>
<feBlend mode="normal" in="SourceGraphic" in2="effect1_dropShadow_1095_1946" result="shape"/>
</filter>
</defs>
</svg>
