<svg width="70" height="70" viewBox="0 0 70 70" fill="none" xmlns="http://www.w3.org/2000/svg">
<g clip-path="url(#clip0_1090_4898)">
<path d="M28.315 36.6032C25.3779 33.879 20.5567 34.4215 18.3633 38.0557C16.94 40.4182 17.3425 43.4661 19.0779 45.607L24.2929 52.327C25.2817 53.5986 25.0513 55.4303 23.7767 56.419C22.505 57.4078 20.6733 57.1774 19.6846 55.9028L14.4696 49.1828C11.1971 45.149 10.7217 39.4265 13.3671 35.0428C13.7258 34.4478 14.1429 33.9024 14.5833 33.3861V16.3411C14.5833 12.5261 11.8387 9.05237 8.04417 8.67029C3.68083 8.23279 0 11.6482 0 15.924V46.6861C0 52.9103 2.48792 58.8778 6.90958 63.2615L12.1362 68.4386C13.2154 69.439 14.63 69.9932 16.1029 69.9932H37.9167C39.5267 69.9932 40.8333 68.6865 40.8333 67.0765V55.9349C40.8333 51.1078 38.8383 46.4936 35.3208 43.1861L28.315 36.6003V36.6032ZM61.9558 8.67612C58.1613 9.05529 55.4167 12.532 55.4167 16.347V33.392C55.8571 33.9082 56.2713 34.4507 56.6329 35.0486C59.2754 39.4324 58.8029 45.1549 55.5304 49.1886L46.6696 58.0086V67.0853C46.6696 68.112 46.4596 69.0861 46.1329 70.002H53.9029C55.3729 70.002 56.7904 69.4478 57.8696 68.4474L63.0904 63.279C67.515 58.8982 70.0058 52.9278 70.0058 46.6978V15.9299C70.0058 11.654 66.3279 8.23862 61.9617 8.67612H61.9558ZM51.6367 38.0586C49.4433 34.4245 44.6221 33.882 41.685 36.6061L39.2583 38.887L39.3167 38.9424C42.6446 42.072 44.9196 46.129 45.9754 50.5157L50.9192 45.6099C52.6546 43.469 53.0571 40.4182 51.6337 38.0586H51.6367ZM49.5921 8.02279C49.5921 14.3315 41.3671 22.1715 37.2692 25.4586C35.9479 26.5174 34.0696 26.5174 32.7483 25.4586C28.6504 22.1686 20.4254 14.3315 20.4254 8.02279C20.2329 3.79654 23.4938 0.211953 27.7171 0.00195312C31.9404 0.211953 35.2013 3.79654 35.0088 8.02279C34.8162 3.79654 38.0771 0.211953 42.3004 0.00195312C46.5238 0.211953 49.7846 3.79654 49.5921 8.02279Z" fill="#0093D5"/>
</g>
<defs>
<clipPath id="clip0_1090_4898">
<rect width="70" height="70" fill="white"/>
</clipPath>
</defs>
</svg>
