<svg width="44" height="44" viewBox="0 0 44 44" fill="none" xmlns="http://www.w3.org/2000/svg">
<path d="M43.9785 21.9972C43.9785 33.1068 35.7458 42.2913 25.0509 43.7818C24.0509 43.9205 23.0278 43.9929 21.9893 43.9929C20.7905 43.9929 19.6133 43.8974 18.4669 43.7124C7.99694 42.0262 0 32.945 0 21.9972C0 9.84881 9.84594 0 21.9908 0C34.1357 0 43.9816 9.84881 43.9816 21.9972H43.9785Z" fill="white"/>
<path d="M25.0689 17.6704V22.4622H30.9949L30.0566 28.9171H25.0689V43.789C24.0689 43.9277 23.0457 44.0001 22.0072 44.0001C20.8085 44.0001 19.6313 43.9046 18.4849 43.7196V28.9171H13.0195V22.4622H18.4849V16.5992C18.4849 12.9617 21.4325 10.0117 25.0704 10.0117V10.0148C25.0812 10.0148 25.0904 10.0117 25.1012 10.0117H30.9965V15.5943H27.1444C25.9995 15.5943 25.0704 16.5237 25.0704 17.6688L25.0689 17.6704Z" fill="#0093D5"/>
</svg>
