<svg width="70" height="70" viewBox="0 0 70 70" fill="none" xmlns="http://www.w3.org/2000/svg">
<g clip-path="url(#clip0_1090_4896)">
<path d="M23.4437 58.3268H46.777V59.7851C46.777 65.423 42.2066 69.9934 36.5687 69.9934H33.652C28.0141 69.9934 23.4437 65.423 23.4437 59.7851V58.3268ZM34.9995 18.9576C30.9774 18.9576 27.7079 22.2301 27.7079 26.2493C27.7079 30.2684 30.9774 33.5409 34.9995 33.5409C39.0216 33.5409 42.2912 30.2684 42.2912 26.2493C42.2912 22.2301 39.0216 18.9576 34.9995 18.9576ZM61.3604 26.2434C61.3604 33.7976 58.0995 40.9872 52.412 45.9689C50.2566 47.8589 48.6933 50.0901 47.7629 52.4934H22.1691C21.1249 49.9355 19.4683 47.5293 17.2254 45.4439C10.9574 39.6076 7.98828 31.3564 9.07912 22.8076C10.5812 11.0243 20.2499 1.50136 32.0683 0.165528C39.5554 -0.677389 47.0308 1.68803 52.5958 6.66094C58.1666 11.6397 61.3604 18.7768 61.3604 26.2434ZM47.4887 22.4197L49.0929 21.4951C50.49 20.693 50.9712 18.908 50.1662 17.5139C49.3612 16.1168 47.5791 15.6384 46.182 16.4405L44.5924 17.3534C42.8279 15.4518 40.5295 14.0693 37.9162 13.4743V11.663C37.9162 10.053 36.6124 8.74636 34.9995 8.74636C33.3866 8.74636 32.0829 10.053 32.0829 11.663V13.4743C29.4695 14.0722 27.1683 15.4518 25.4066 17.3534L23.817 16.4405C22.42 15.6384 20.6379 16.1168 19.8329 17.5139C19.0308 18.9109 19.512 20.693 20.9062 21.4951L22.5104 22.4197C22.1341 23.6389 21.8745 24.9076 21.8745 26.2464C21.8745 27.5851 22.1341 28.8539 22.5104 30.073L20.9062 30.9976C19.5091 31.7997 19.0279 33.5847 19.8329 34.9789C20.3754 35.918 21.3554 36.4401 22.3645 36.4401C22.8575 36.4401 23.3591 36.3147 23.817 36.0522L25.4066 35.1393C27.1712 37.0409 29.4695 38.4234 32.0829 39.0184V40.8297C32.0829 42.4397 33.3866 43.7464 34.9995 43.7464C36.6124 43.7464 37.9162 42.4397 37.9162 40.8297V39.0184C40.5295 38.4205 42.8308 37.0409 44.5924 35.1393L46.182 36.0522C46.6399 36.3147 47.1416 36.4401 47.6345 36.4401C48.6437 36.4401 49.6266 35.9151 50.1662 34.9789C50.9683 33.5818 50.487 31.7997 49.0929 30.9976L47.4887 30.073C47.8649 28.8539 48.1245 27.5851 48.1245 26.2464C48.1245 24.9076 47.8649 23.6389 47.4887 22.4197Z" fill="#0093D5"/>
</g>
<defs>
<clipPath id="clip0_1090_4896">
<rect width="70" height="70" fill="white"/>
</clipPath>
</defs>
</svg>
