<svg width="45" height="44" viewBox="0 0 45 44" fill="none" xmlns="http://www.w3.org/2000/svg">
<path d="M23.0206 0H22.9204C10.8033 0 0.980469 9.82572 0.980469 21.9464V22.0465C0.980469 34.1672 10.8033 43.9929 22.9204 43.9929H23.0206C35.1377 43.9929 44.9605 34.1672 44.9605 22.0465V21.9464C44.9605 9.82572 35.1377 0 23.0206 0Z" fill="white"/>
<path d="M29.8009 8.95312H16.1922C12.4326 8.95312 9.37402 12.0126 9.37402 15.7733V28.2269C9.37402 31.9876 12.4326 35.0471 16.1922 35.0471H29.8009C33.5605 35.0471 36.6191 31.9876 36.6191 28.2269V15.7733C36.6191 12.0126 33.5605 8.95312 29.8009 8.95312ZM11.7793 15.7733C11.7793 13.3396 13.7592 11.3591 16.1922 11.3591H29.8009C32.2339 11.3591 34.2138 13.3396 34.2138 15.7733V28.2269C34.2138 30.6606 32.2339 32.6411 29.8009 32.6411H16.1922C13.7592 32.6411 11.7793 30.6606 11.7793 28.2269V15.7733Z" fill="#0093D5"/>
<path d="M22.9778 28.3402C26.474 28.3402 29.3199 25.495 29.3199 21.9963C29.3199 18.4976 26.4755 15.6523 22.9778 15.6523C19.4801 15.6523 16.6357 18.4976 16.6357 21.9963C16.6357 25.495 19.4801 28.3402 22.9778 28.3402ZM22.9778 18.0598C25.1489 18.0598 26.9147 19.8261 26.9147 21.9978C26.9147 24.1695 25.1489 25.9358 22.9778 25.9358C20.8068 25.9358 19.041 24.1695 19.041 21.9978C19.041 19.8261 20.8068 18.0598 22.9778 18.0598Z" fill="#0093D5"/>
<path d="M29.9119 16.6725C30.8534 16.6725 31.6207 15.9065 31.6207 14.9632C31.6207 14.0199 30.8549 13.2539 29.9119 13.2539C28.9689 13.2539 28.2031 14.0199 28.2031 14.9632C28.2031 15.9065 28.9689 16.6725 29.9119 16.6725Z" fill="#0093D5"/>
</svg>
