<svg width="70" height="70" viewBox="0 0 70 70" fill="none" xmlns="http://www.w3.org/2000/svg">
<g clip-path="url(#clip0_1090_4901)">
<path d="M23.3333 35C13.6821 35 5.83333 27.1513 5.83333 17.5C5.83333 7.84875 13.6821 0 23.3333 0C32.9846 0 40.8333 7.84875 40.8333 17.5C40.8333 27.1513 32.9846 35 23.3333 35ZM53.83 69.9242L52.0683 69.0433C48.7463 67.3838 37.9137 61.1567 37.9137 50.75V40.7575C37.9137 37.6075 39.9204 34.8279 42.9129 33.8363L53.9554 30.1758L64.9979 33.8363C67.9875 34.8279 69.9971 37.6075 69.9971 40.7575V50.75C69.9971 62.5042 59.0188 67.8358 55.6558 69.1892L53.83 69.9242ZM32.0833 50.75V40.8363H14.5833C6.54208 40.8363 0 47.3783 0 55.4196V70.0029H42.735C37.6863 66.0625 32.0833 59.6808 32.0833 50.75Z" fill="#0093D5"/>
</g>
<defs>
<clipPath id="clip0_1090_4901">
<rect width="70" height="70" fill="white"/>
</clipPath>
</defs>
</svg>
