<svg width="70" height="70" viewBox="0 0 70 70" fill="none" xmlns="http://www.w3.org/2000/svg">
<g clip-path="url(#clip0_1090_4892)">
<path d="M17.4591 27.416C17.3483 27.416 17.252 27.4919 17.2287 27.5998L14.8633 37.6243H19.9879L17.6924 27.5998C17.6662 27.4919 17.5699 27.416 17.4591 27.416Z" fill="#0093D5"/>
<path d="M32.0833 11.666H8.75C3.91708 11.666 0 15.5831 0 20.416V58.3327H32.0833V11.666ZM20.9213 41.7077H13.895L12.7254 46.666H8.53417L13.2475 26.6781C13.8338 24.1523 16.5638 22.5773 19.2442 23.7002C20.5246 24.2369 21.385 25.4677 21.7 26.821L26.2471 46.666H22.0558L20.9213 41.7077Z" fill="#0093D5"/>
<path d="M61.2503 11.666H37.917V58.3327H70.0003V20.416C70.0003 15.5918 66.0745 11.666 61.2503 11.666ZM64.167 29.9039H61.4487C61.0957 33.6227 59.6491 37.8694 56.7616 41.1798C58.6953 42.3552 61.1074 43.1194 64.167 43.1194V46.7739C59.9203 46.7739 56.5982 45.5548 53.9937 43.7027C51.3803 45.5694 48.0174 46.7739 43.7503 46.7739V43.1194C46.8099 43.1194 49.2366 42.3668 51.1732 41.1914C49.5574 39.3364 48.382 37.1898 47.6062 34.9993H51.5028C52.0978 36.3643 52.9232 37.6827 53.9732 38.8639C56.3591 36.1806 57.4499 32.7156 57.7737 29.9068H43.7503V26.2523H52.1299V23.3356H55.7845V26.2523H64.1641V29.9068L64.167 29.9039Z" fill="#0093D5"/>
</g>
<defs>
<clipPath id="clip0_1090_4892">
<rect width="70" height="70" fill="white"/>
</clipPath>
</defs>
</svg>
