<svg width="45" height="44" viewBox="0 0 45 44" fill="none" xmlns="http://www.w3.org/2000/svg">
<path d="M22.8175 0H22.7173C10.6002 0 0.777344 9.82573 0.777344 21.9464V22.0466C0.777344 34.1672 10.6002 43.9929 22.7173 43.9929H22.8175C34.9346 43.9929 44.7574 34.1672 44.7574 22.0466V21.9464C44.7574 9.82573 34.9346 0 22.8175 0Z" fill="white"/>
<path d="M11.302 14.6234C10.7227 14.0854 10.4346 13.4196 10.4346 12.6274C10.4346 11.8352 10.7242 11.1401 11.302 10.6006C11.8814 10.0627 12.6272 9.79297 13.5409 9.79297C14.4546 9.79297 15.1711 10.0627 15.7489 10.6006C16.3283 11.1385 16.6164 11.8151 16.6164 12.6274C16.6164 13.4397 16.3267 14.0854 15.7489 14.6234C15.1696 15.1613 14.4346 15.431 13.5409 15.431C12.6472 15.431 11.8814 15.1613 11.302 14.6234ZM16.1295 17.709V34.2008H10.9199V17.709H16.1295Z" fill="#0093D5"/>
<path d="M33.487 19.3417C34.6226 20.5748 35.1897 22.2671 35.1897 24.4218V33.913H30.2421V25.0907C30.2421 24.0041 29.9601 23.1595 29.3977 22.5584C28.8353 21.9573 28.0772 21.6552 27.128 21.6552C26.1789 21.6552 25.4208 21.9557 24.8584 22.5584C24.2959 23.1595 24.014 24.0041 24.014 25.0907V33.913H19.0371V17.6664H24.014V19.8211C24.5178 19.1028 25.1974 18.5356 26.051 18.118C26.9046 17.7003 27.8646 17.4922 28.9324 17.4922C30.8337 17.4922 32.353 18.1087 33.487 19.3402V19.3417Z" fill="#0093D5"/>
</svg>
