<svg width="262" height="60" viewBox="0 0 262 60" fill="none" xmlns="http://www.w3.org/2000/svg">
<rect x="0.75" y="0.75" width="58.5" height="58.5" rx="6.36111" fill="white"/>
<rect x="0.75" y="0.75" width="58.5" height="58.5" rx="6.36111" stroke="#808080" stroke-width="1.5"/>
<path d="M29.9884 37.3903L26.3992 36.1503L21.3379 34.4023V39.9291L26.3992 41.678L28.3692 42.3583C28.9684 42.5652 29.372 43.1421 29.372 43.794C29.372 45.1567 28.2952 46.2649 26.9721 46.2649H21.3409V51.5046H26.9721C31.1017 51.5046 34.4627 48.0453 34.4627 43.794C34.4627 40.8882 32.6651 38.316 29.9894 37.3903H29.9884Z" fill="#357487"/>
<path d="M42.4698 8.81386C40.2271 6.55998 37.1621 5.16992 33.7808 5.16992C33.7443 5.16992 33.7098 5.17297 33.6743 5.17297C26.9238 5.23177 21.459 10.8234 21.3454 17.7584H21.3403V54.8282H26.4017V17.7584H26.3976C26.5091 13.6957 29.7151 10.432 33.6753 10.3732C33.7108 10.3732 33.7463 10.3702 33.7818 10.3702C35.768 10.3702 37.5707 11.1782 38.8989 12.4912C40.2991 13.8762 41.172 15.8219 41.172 17.9784C41.172 22.18 37.8627 25.5856 33.7818 25.5856C33.7453 25.5856 33.7108 25.5836 33.6753 25.5836V30.7838C33.7108 30.7838 33.7463 30.7859 33.7818 30.7859C40.6529 30.7859 46.2232 25.0523 46.2232 17.9784C46.2232 14.3852 44.7845 11.1407 42.4698 8.81386Z" fill="#023E87"/>
<path d="M26.3988 25.6035H20.4188C16.7567 25.6035 13.7769 28.6715 13.7769 32.4412C13.7769 35.3581 15.5806 37.9405 18.2664 38.8682L21.3374 39.9298V34.4031L19.8866 33.9012C19.2772 33.6903 18.8666 33.1043 18.8666 32.4412C18.8666 31.5601 19.5631 30.8443 20.4188 30.8443H26.4789V25.6035H26.3978H26.3988Z" fill="#4E8EB2"/>
<path d="M37.9979 16.322H35.6539V14.2207H31.7872V16.322H29.4424V20.6189H31.7872V22.554H35.6539V20.5354H37.9979V16.322Z" fill="url(#paint0_linear_1090_4820)"/>
<path d="M26.4009 25.5997L33.7009 25.584V30.7828L26.4009 30.8443V25.5997Z" fill="#023E87"/>
<path d="M83.1222 15.8355C85.4721 15.8355 87.457 16.634 89.0769 18.231C90.6967 19.8281 91.5067 21.7673 91.5067 24.0488C91.5067 26.3303 90.6967 28.2695 89.0769 29.8666C87.457 31.4636 85.4721 32.2621 83.1222 32.2621H79.5289V39.791H74.0533V15.8355H83.1222ZM83.1222 27.1288C83.9664 27.1288 84.6622 26.8322 85.2098 26.239C85.7573 25.6458 86.0311 24.9158 86.0311 24.0488C86.0311 23.1818 85.7573 22.4518 85.2098 21.8586C84.6622 21.2654 83.9664 20.9688 83.1222 20.9688H79.5289V27.1288H83.1222ZM105.455 22.6799H110.588V39.791H105.455V38.1826C104.245 39.5743 102.546 40.2701 100.356 40.2701C98.0968 40.2701 96.169 39.4032 94.572 37.6692C92.9749 35.9125 92.1764 33.7679 92.1764 31.2355C92.1764 28.703 92.9749 26.5698 94.572 24.8359C96.169 23.0792 98.0968 22.2008 100.356 22.2008C102.546 22.2008 104.245 22.8966 105.455 24.2884V22.6799ZM98.4391 34.2812C99.192 35.0341 100.173 35.4106 101.382 35.4106C102.591 35.4106 103.572 35.0341 104.325 34.2812C105.078 33.5283 105.455 32.5131 105.455 31.2355C105.455 29.9578 105.078 28.9426 104.325 28.1897C103.572 27.4368 102.591 27.0604 101.382 27.0604C100.173 27.0604 99.192 27.4368 98.4391 28.1897C97.6862 28.9426 97.3097 29.9578 97.3097 31.2355C97.3097 32.5131 97.6862 33.5283 98.4391 34.2812ZM124.381 22.2008C126.206 22.2008 127.723 22.8282 128.933 24.083C130.165 25.3378 130.781 27.0718 130.781 29.2848V39.791H125.647V30.0377C125.647 29.0338 125.362 28.2695 124.792 27.7448C124.244 27.1972 123.537 26.9235 122.67 26.9235C121.689 26.9235 120.913 27.2201 120.343 27.8132C119.773 28.4064 119.487 29.2848 119.487 30.4484V39.791H114.354V22.6799H119.487V24.2884C120.514 22.8966 122.145 22.2008 124.381 22.2008ZM146.728 15.8355H151.862V39.791H146.728V38.1826C145.519 39.5743 143.82 40.2701 141.629 40.2701C139.371 40.2701 137.443 39.4032 135.846 37.6692C134.249 35.9125 133.45 33.7679 133.45 31.2355C133.45 28.703 134.249 26.5698 135.846 24.8359C137.443 23.0792 139.371 22.2008 141.629 22.2008C143.82 22.2008 145.519 22.8966 146.728 24.2884V15.8355ZM139.713 34.2812C140.466 35.0341 141.447 35.4106 142.656 35.4106C143.865 35.4106 144.846 35.0341 145.599 34.2812C146.352 33.5283 146.728 32.5131 146.728 31.2355C146.728 29.9578 146.352 28.9426 145.599 28.1897C144.846 27.4368 143.865 27.0604 142.656 27.0604C141.447 27.0604 140.466 27.4368 139.713 28.1897C138.96 28.9426 138.584 29.9578 138.584 31.2355C138.584 32.5131 138.96 33.5283 139.713 34.2812ZM164.012 40.2017C161.822 40.2017 159.94 39.6883 158.366 38.6617C156.814 37.6122 155.731 36.1749 155.115 34.3497L157.168 33.1519C157.601 34.6349 158.4 35.7984 159.563 36.6426C160.727 37.4639 162.221 37.8746 164.047 37.8746C165.826 37.8746 167.206 37.4867 168.187 36.711C169.191 35.9125 169.693 34.863 169.693 33.5626C169.693 32.3078 169.237 31.3609 168.324 30.7221C167.412 30.0833 165.906 29.4217 163.807 28.7372C161.32 27.9159 159.678 27.2543 158.879 26.7524C157.054 25.6572 156.141 24.0716 156.141 21.9955C156.141 19.9649 156.848 18.3679 158.263 17.2044C159.678 16.018 161.423 15.4248 163.499 15.4248C165.37 15.4248 166.99 15.9153 168.359 16.8964C169.727 17.8546 170.743 19.0866 171.404 20.5923L169.385 21.7217C168.29 19.0752 166.328 17.7519 163.499 17.7519C162.016 17.7519 160.818 18.1169 159.906 18.847C158.993 19.5771 158.537 20.5924 158.537 21.8928C158.537 23.0792 158.947 23.9689 159.769 24.5621C160.59 25.1553 161.948 25.7599 163.841 26.3759C164.708 26.6725 165.324 26.8892 165.689 27.0261C166.077 27.1402 166.625 27.3455 167.332 27.6421C168.062 27.9159 168.598 28.1669 168.94 28.395C169.283 28.6004 169.693 28.8969 170.172 29.2848C170.674 29.6498 171.028 30.0263 171.233 30.4141C171.461 30.7792 171.655 31.2355 171.815 31.783C171.998 32.3078 172.089 32.8781 172.089 33.4941C172.089 35.5246 171.347 37.1559 169.864 38.3879C168.381 39.5971 166.431 40.2017 164.012 40.2017ZM184.099 22.2692C186.631 22.2692 188.673 23.1704 190.224 24.9728C191.799 26.7523 192.586 28.8627 192.586 31.3039C192.586 31.5549 192.563 31.9085 192.517 32.3648H177.494C177.722 34.0987 178.452 35.479 179.684 36.5057C180.939 37.5095 182.479 38.0115 184.304 38.0115C185.604 38.0115 186.722 37.7491 187.658 37.2243C188.616 36.6768 189.335 35.9695 189.814 35.1026L191.799 36.2661C191.046 37.4753 190.019 38.4335 188.719 39.1408C187.418 39.8481 185.935 40.2017 184.27 40.2017C181.578 40.2017 179.387 39.3575 177.699 37.6692C176.011 35.9809 175.167 33.8363 175.167 31.2355C175.167 28.6802 175.999 26.547 177.665 24.8359C179.33 23.1248 181.475 22.2692 184.099 22.2692ZM184.099 24.4595C182.319 24.4595 180.825 24.9956 179.616 26.0679C178.429 27.1174 177.722 28.4863 177.494 30.1746H190.259C190.03 28.3722 189.335 26.9691 188.171 25.9652C187.008 24.9614 185.65 24.4595 184.099 24.4595ZM204.152 40.2017C201.574 40.2017 199.43 39.3461 197.719 37.635C196.007 35.9011 195.152 33.7679 195.152 31.2355C195.152 28.703 196.007 26.5812 197.719 24.8701C199.43 23.1362 201.574 22.2692 204.152 22.2692C205.841 22.2692 207.358 22.6799 208.704 23.5012C210.05 24.2998 211.031 25.3835 211.647 26.7524L209.799 27.8132C209.343 26.7866 208.601 25.9766 207.575 25.3835C206.571 24.7675 205.43 24.4595 204.152 24.4595C202.259 24.4595 200.662 25.1211 199.361 26.4444C198.061 27.7448 197.411 29.3418 197.411 31.2355C197.411 33.1291 198.061 34.7375 199.361 36.0608C200.662 37.3612 202.259 38.0115 204.152 38.0115C205.43 38.0115 206.571 37.7149 207.575 37.1217C208.578 36.5057 209.365 35.6843 209.936 34.6577L211.818 35.7528C211.111 37.1217 210.073 38.2054 208.704 39.0039C207.335 39.8024 205.818 40.2017 204.152 40.2017ZM227.107 22.6799H229.366V39.791H227.107V37.1217C225.829 39.175 223.913 40.2017 221.358 40.2017C219.282 40.2017 217.639 39.5743 216.43 38.3195C215.243 37.0418 214.65 35.3307 214.65 33.1861V22.6799H216.909V33.1861C216.909 34.7147 217.308 35.9011 218.107 36.7452C218.928 37.5894 220.08 38.0115 221.563 38.0115C223.206 38.0115 224.54 37.4981 225.567 36.4715C226.594 35.422 227.107 33.8135 227.107 31.6461V22.6799ZM236.402 25.5204C237.452 23.4442 239.254 22.4061 241.81 22.4061V24.5963C240.258 24.5963 238.969 25.0526 237.942 25.9652C236.916 26.8778 236.402 28.3152 236.402 30.2772V39.791H234.144V22.6799H236.402V25.5204ZM251.774 22.2692C254.307 22.2692 256.349 23.1704 257.9 24.9728C259.474 26.7523 260.261 28.8627 260.261 31.3039C260.261 31.5549 260.239 31.9085 260.193 32.3648H245.169C245.398 34.0987 246.128 35.479 247.36 36.5057C248.615 37.5095 250.155 38.0115 251.98 38.0115C253.28 38.0115 254.398 37.7491 255.333 37.2243C256.292 36.6768 257.01 35.9695 257.489 35.1026L259.474 36.2661C258.721 37.4753 257.695 38.4335 256.394 39.1408C255.094 39.8481 253.611 40.2017 251.945 40.2017C249.253 40.2017 247.063 39.3575 245.375 37.6692C243.687 35.9809 242.842 33.8363 242.842 31.2355C242.842 28.6802 243.675 26.547 245.341 24.8359C247.006 23.1248 249.151 22.2692 251.774 22.2692ZM251.774 24.4595C249.995 24.4595 248.5 24.9956 247.291 26.0679C246.105 27.1174 245.398 28.4863 245.169 30.1746H257.934C257.706 28.3722 257.01 26.9691 255.847 25.9652C254.683 24.9614 253.326 24.4595 251.774 24.4595Z" fill="#0093D5"/>
<defs>
<linearGradient id="paint0_linear_1090_4820" x1="29.4424" y1="18.4291" x2="36.9994" y2="18.4291" gradientUnits="userSpaceOnUse">
<stop stop-color="#F67E68"/>
<stop offset="1" stop-color="#E13A3B"/>
</linearGradient>
</defs>
</svg>
