<svg width="70" height="70" viewBox="0 0 70 70" fill="none" xmlns="http://www.w3.org/2000/svg">
<path d="M49.6099 16.2676C49.7091 9.9763 50.1145 9.21797 51.3424 7.99005C53.2003 6.13214 53.1128 6.18172 53.4395 5.85505C56.4028 2.89172 58.9491 2.32589 60.3666 3.4663C61.8745 4.6738 60.9907 9.02255 60.9907 9.02255C60.9907 9.02255 65.3424 8.13588 66.547 9.64672C67.6524 11.0321 67.1332 13.5871 64.1466 16.5738C63.8199 16.9005 63.8724 16.8101 62.0174 18.6651C60.597 20.0855 60.0837 20.3567 53.7166 20.4063L42.8928 31.23C41.7524 32.3705 39.9091 32.3705 38.7687 31.23C37.6282 30.0896 37.6282 28.2463 38.7687 27.1059L49.607 16.2676H49.6099ZM66.442 25.8021C66.1941 24.2155 64.7416 23.1276 63.1082 23.3696C61.5157 23.6175 60.4278 25.1109 60.6757 26.7034C61.0549 29.1359 61.2474 31.93 61.2474 35.0042C61.2474 54.1405 54.1337 61.2542 34.9974 61.2542C15.8612 61.2542 8.75032 54.1375 8.75032 35.0013C8.75032 15.8651 15.8641 8.7513 35.0003 8.7513C38.0716 8.7513 40.8628 8.9438 43.3012 9.32588C44.9316 9.5738 46.387 8.48297 46.6349 6.89338C46.8828 5.30088 45.7949 3.81047 44.2024 3.55964C41.4666 3.1338 38.372 2.91797 35.0032 2.91797C12.5128 2.91797 2.91699 12.5138 2.91699 35.0013C2.91699 57.4888 12.5128 67.0846 35.0003 67.0846C57.4878 67.0846 67.0836 57.4888 67.0836 35.0013C67.0836 31.58 66.8737 28.57 66.442 25.8021ZM40.8249 17.8192C40.9445 16.2121 39.7399 14.8151 38.1328 14.6955C37.1412 14.6226 36.097 14.5846 35.0003 14.5846C20.8807 14.5846 14.5837 20.8817 14.5837 35.0013C14.5837 49.1209 20.8807 55.418 35.0003 55.418C49.1199 55.418 55.417 49.1209 55.417 35.0013C55.417 33.9046 55.3791 32.8605 55.3062 31.8688C55.1866 30.2617 53.807 29.0542 52.1824 29.1767C50.5753 29.2963 49.3707 30.6934 49.4903 32.3005C49.5516 33.155 49.5837 34.0563 49.5837 35.0013C49.5837 45.9038 45.9028 49.5846 35.0003 49.5846C24.0978 49.5846 20.417 45.9038 20.417 35.0013C20.417 24.0988 24.0978 20.418 35.0003 20.418C35.9482 20.418 36.8466 20.4471 37.7012 20.5113C39.2762 20.6309 40.7053 19.4234 40.8249 17.8192ZM32.7662 28.4475C31.6782 27.2692 29.832 27.1875 28.6449 28.2813C27.032 29.7688 26.2503 31.968 26.2503 35.0013C26.2503 40.8084 29.1932 43.7513 35.0003 43.7513C38.0366 43.7513 40.2357 42.9667 41.7232 41.3567C42.8141 40.1725 42.7412 38.3263 41.5541 37.2355C40.3699 36.1417 38.5266 36.2175 37.4328 37.4017C37.2899 37.5592 36.7649 37.9209 35.0003 37.9209C32.4395 37.9209 32.0837 37.565 32.0837 35.0042C32.0837 33.2396 32.4453 32.7146 32.6028 32.5717C33.787 31.478 33.8599 29.6346 32.7691 28.4505L32.7662 28.4475Z" fill="white"/>
</svg>
