<svg width="244" height="116" viewBox="0 0 244 116" fill="none" xmlns="http://www.w3.org/2000/svg">
<g filter="url(#filter0_d_1095_1937)">
<rect x="23.4189" y="23" width="197.581" height="70" rx="13.5484" fill="white" shape-rendering="crispEdges"/>
<g filter="url(#filter1_ii_1095_1937)">
<path d="M51.1255 41.5805C50.7422 41.9862 50.5156 42.6159 50.5156 43.4312V72.5625C50.5156 73.3792 50.7422 74.0075 51.1255 74.4132L51.223 74.508L67.5418 58.1892V57.9968V57.8045L51.223 41.4844L51.1255 41.5805Z" fill="url(#paint0_linear_1095_1937)"/>
<path d="M72.9866 63.6332L67.5478 58.1919V57.9996V57.8072L72.9879 52.3672L73.1104 52.437L79.5555 56.0988C81.3956 57.1447 81.3956 58.8557 79.5555 59.9029L73.1104 63.5647L72.9866 63.6332Z" fill="url(#paint1_linear_1095_1937)"/>
<g filter="url(#filter2_i_1095_1937)">
<path d="M73.1029 63.5639L67.539 58L51.124 74.4163C51.7299 75.0591 52.7323 75.1381 53.8612 74.498L73.1029 63.5639Z" fill="url(#paint2_linear_1095_1937)"/>
</g>
<path d="M73.1029 52.4341L53.8612 41.5013C52.7323 40.8598 51.7299 40.9401 51.124 41.5829L67.5403 57.9993L73.1029 52.4341Z" fill="url(#paint3_linear_1095_1937)"/>
</g>
<path d="M95.1312 48.4808H97.5549V50.3776C96.9358 50.8518 96.0796 51.1284 95.3156 51.1284C93.4979 51.1284 91.9699 49.5477 91.9699 47.6641C91.9699 45.7937 93.4979 44.2131 95.3156 44.2131C96.2508 44.2131 97.3178 44.6346 97.9369 45.3063L98.8721 44.4106C98.0159 43.5281 96.5933 42.9881 95.3156 42.9881C92.7734 42.9881 90.6 45.1219 90.6 47.6641C90.6 50.2063 92.7734 52.3534 95.3156 52.3534C96.5933 52.3534 98.0159 51.8002 98.8721 50.9308V47.3217H95.1312V48.4808ZM103.84 51.1942C102.667 51.1942 101.838 50.3776 101.666 49.2448H107.027C107.027 46.8079 105.829 45.2273 103.748 45.2273C101.864 45.2273 100.349 46.7289 100.349 48.7706C100.349 50.8649 101.956 52.3534 103.853 52.3534C104.815 52.3534 106 51.945 106.606 51.2996L105.789 50.4566C105.381 50.8781 104.551 51.1942 103.84 51.1942ZM103.8 46.3864C104.973 46.3864 105.618 47.1504 105.763 48.2042H101.68C101.89 47.0977 102.747 46.3864 103.8 46.3864ZM111.727 50.9703C111.582 51.1152 111.318 51.2206 111.028 51.2206C110.646 51.2206 110.33 50.8781 110.33 50.4039V46.4918H111.937V45.3854H110.33V43.5149H109.053V45.3854H108.025V46.4918H109.053V50.4961C109.053 51.5894 109.79 52.3534 110.844 52.3534C111.331 52.3534 111.832 52.169 112.201 51.866L111.727 50.9703ZM117.944 44.2526C118.366 44.2526 118.721 43.8838 118.721 43.4622C118.721 43.0539 118.366 42.6851 117.944 42.6851C117.496 42.6851 117.154 43.0539 117.154 43.4622C117.154 43.8838 117.496 44.2526 117.944 44.2526ZM117.286 52.1953H118.59V45.3854H117.286V52.1953ZM123.664 50.9703C123.519 51.1152 123.255 51.2206 122.966 51.2206C122.584 51.2206 122.267 50.8781 122.267 50.4039V46.4918H123.874V45.3854H122.267V43.5149H120.99V45.3854H119.962V46.4918H120.99V50.4961C120.99 51.5894 121.727 52.3534 122.781 52.3534C123.269 52.3534 123.769 52.169 124.138 51.866L123.664 50.9703ZM133.622 52.3534C136.164 52.3534 138.298 50.2063 138.298 47.6641C138.298 45.1219 136.164 42.9881 133.622 42.9881C131.08 42.9881 128.92 45.1219 128.92 47.6641C128.92 50.2063 131.08 52.3534 133.622 52.3534ZM133.622 51.1284C131.818 51.1284 130.29 49.5477 130.29 47.6641C130.29 45.7937 131.818 44.2131 133.622 44.2131C135.427 44.2131 136.942 45.7937 136.942 47.6641C136.942 49.5477 135.427 51.1284 133.622 51.1284ZM143.351 45.2273C142.429 45.2273 141.599 45.7015 141.191 46.3733V45.3854H139.887V52.1953H141.191V47.7827C141.296 46.9792 142.113 46.3601 143.061 46.3601C143.983 46.3601 144.629 47.0714 144.629 48.0856V52.1953H145.906V47.8617C145.906 46.3206 144.853 45.2273 143.351 45.2273Z" fill="#282828"/>
<path d="M97.0306 65.3697H99.9812V67.306C99.262 67.8223 98.3768 68.1174 97.5101 68.1174C95.3525 68.1174 93.5269 66.2364 93.5269 64.0235C93.5269 61.8291 95.3525 59.9481 97.5101 59.9481C98.6719 59.9481 99.9074 60.5013 100.663 61.368L102.637 59.5977C101.364 58.27 99.4095 57.477 97.5101 57.477C93.8404 57.477 90.7238 60.4644 90.7238 64.0235C90.7238 67.5826 93.8404 70.5885 97.5101 70.5885C99.4095 70.5885 101.364 69.7955 102.637 68.4678V63.249H97.0306V65.3697ZM109.537 70.5885C112.358 70.5885 114.718 68.3018 114.718 65.591C114.718 62.8802 112.358 60.612 109.537 60.612C106.697 60.612 104.318 62.8802 104.318 65.591C104.318 68.3018 106.697 70.5885 109.537 70.5885ZM109.537 68.3203C108.098 68.3203 106.9 67.0663 106.9 65.591C106.9 64.1157 108.098 62.8802 109.537 62.8802C110.956 62.8802 112.155 64.1157 112.155 65.591C112.155 67.0663 110.956 68.3203 109.537 68.3203ZM121.224 70.5885C124.046 70.5885 126.406 68.3018 126.406 65.591C126.406 62.8802 124.046 60.612 121.224 60.612C118.384 60.612 116.005 62.8802 116.005 65.591C116.005 68.3018 118.384 70.5885 121.224 70.5885ZM121.224 68.3203C119.786 68.3203 118.587 67.0663 118.587 65.591C118.587 64.1157 119.786 62.8802 121.224 62.8802C122.644 62.8802 123.843 64.1157 123.843 65.591C123.843 67.0663 122.644 68.3203 121.224 68.3203ZM135.125 60.8333V62.1241C134.479 61.2205 133.262 60.612 131.971 60.612C129.574 60.612 127.748 62.4745 127.748 65.13C127.748 67.7855 129.574 69.6664 131.971 69.6664C133.225 69.6664 134.369 69.1132 135.125 68.1912V69.2423C135.125 70.4778 134.018 71.2708 132.285 71.2708C131.178 71.2708 130.072 70.9204 129.445 70.3672L128.504 72.2666C129.445 73.0042 131.031 73.539 132.709 73.539C135.715 73.539 137.835 71.8056 137.835 69.3529V60.8333H135.125ZM132.82 67.3982C131.473 67.3982 130.514 66.4577 130.514 65.13C130.514 63.8022 131.473 62.8802 132.82 62.8802C134.166 62.8802 135.125 63.8022 135.125 65.13C135.125 66.4577 134.166 67.3982 132.82 67.3982ZM140.204 70.3672H142.896V57.477H140.204V70.3672ZM149.746 68.2096C148.621 68.2096 147.791 67.5089 147.477 66.4762H154.356C154.356 62.8802 152.604 60.612 149.616 60.612C146.832 60.612 144.711 62.6958 144.711 65.5726C144.711 68.5047 146.924 70.5885 149.764 70.5885C151.166 70.5885 152.807 69.9984 153.655 69.1132L151.94 67.3613C151.424 67.8592 150.502 68.2096 149.746 68.2096ZM149.727 62.9908C150.815 62.9908 151.516 63.5994 151.774 64.5399H147.514C147.865 63.581 148.713 62.9908 149.727 62.9908ZM161.401 70.3672H164.112V66.2549H167.1C169.847 66.2549 171.876 64.4846 171.876 61.9766C171.876 59.4686 169.847 57.6983 167.1 57.6983H161.401V70.3672ZM164.112 63.7654V60.1878H166.805C168.151 60.1878 169.073 60.8886 169.073 61.9766C169.073 63.0646 168.151 63.7654 166.805 63.7654H164.112ZM173.502 70.3672H176.194V57.477H173.502V70.3672ZM182.804 60.612C181.476 60.612 180.167 60.9808 178.821 61.6631L179.724 63.4519C180.48 63.0646 181.31 62.7696 182.195 62.7696C183.763 62.7696 184.39 63.6547 184.39 64.669V64.8534C183.578 64.5399 182.73 64.3739 181.956 64.3739C179.743 64.3739 177.991 65.6648 177.991 67.5457C177.991 69.3714 179.558 70.5885 181.587 70.5885C182.619 70.5885 183.707 70.1828 184.39 69.4083V70.3672H186.99V64.669C186.99 62.1794 185.293 60.612 182.804 60.612ZM182.195 68.726C181.273 68.726 180.591 68.2465 180.591 67.472C180.591 66.6975 181.365 66.1258 182.343 66.1258C183.08 66.1258 183.781 66.2549 184.39 66.4762V67.3613C184.205 68.2465 183.228 68.726 182.195 68.726ZM191.435 73.6865C192.929 73.6865 194.146 72.7092 194.865 70.8466L198.775 60.8333H196.027L193.648 67.5273L191.14 60.8333H188.356L192.32 70.4594L191.988 71.1601C191.786 71.5105 191.38 71.6765 190.863 71.6765C190.55 71.6765 190.071 71.5105 189.61 71.2523L189.038 73.0964C189.683 73.4468 190.642 73.6865 191.435 73.6865Z" fill="#282828"/>
</g>
<defs>
<filter id="filter0_d_1095_1937" x="0.838301" y="0.419355" width="242.742" height="115.161" filterUnits="userSpaceOnUse" color-interpolation-filters="sRGB">
<feFlood flood-opacity="0" result="BackgroundImageFix"/>
<feColorMatrix in="SourceAlpha" type="matrix" values="0 0 0 0 0 0 0 0 0 0 0 0 0 0 0 0 0 0 127 0" result="hardAlpha"/>
<feOffset/>
<feGaussianBlur stdDeviation="11.2903"/>
<feComposite in2="hardAlpha" operator="out"/>
<feColorMatrix type="matrix" values="0 0 0 0 0 0 0 0 0 0 0 0 0 0 0 0 0 0 0.1 0"/>
<feBlend mode="normal" in2="BackgroundImageFix" result="effect1_dropShadow_1095_1937"/>
<feBlend mode="normal" in="SourceGraphic" in2="effect1_dropShadow_1095_1937" result="shape"/>
</filter>
<filter id="filter1_ii_1095_1937" x="50.5156" y="41.0586" width="30.4199" height="33.8828" filterUnits="userSpaceOnUse" color-interpolation-filters="sRGB">
<feFlood flood-opacity="0" result="BackgroundImageFix"/>
<feBlend mode="normal" in="SourceGraphic" in2="BackgroundImageFix" result="shape"/>
<feColorMatrix in="SourceAlpha" type="matrix" values="0 0 0 0 0 0 0 0 0 0 0 0 0 0 0 0 0 0 127 0" result="hardAlpha"/>
<feOffset dy="-0.197581"/>
<feComposite in2="hardAlpha" operator="arithmetic" k2="-1" k3="1"/>
<feColorMatrix type="matrix" values="0 0 0 0 0 0 0 0 0 0 0 0 0 0 0 0 0 0 0.12 0"/>
<feBlend mode="normal" in2="shape" result="effect1_innerShadow_1095_1937"/>
<feColorMatrix in="SourceAlpha" type="matrix" values="0 0 0 0 0 0 0 0 0 0 0 0 0 0 0 0 0 0 127 0" result="hardAlpha"/>
<feOffset dy="0.197581"/>
<feComposite in2="hardAlpha" operator="arithmetic" k2="-1" k3="1"/>
<feColorMatrix type="matrix" values="0 0 0 0 1 0 0 0 0 1 0 0 0 0 1 0 0 0 0.25 0"/>
<feBlend mode="normal" in2="effect1_innerShadow_1095_1937" result="effect2_innerShadow_1095_1937"/>
</filter>
<filter id="filter2_i_1095_1937" x="51.124" y="58" width="21.9785" height="16.9414" filterUnits="userSpaceOnUse" color-interpolation-filters="sRGB">
<feFlood flood-opacity="0" result="BackgroundImageFix"/>
<feBlend mode="normal" in="SourceGraphic" in2="BackgroundImageFix" result="shape"/>
<feColorMatrix in="SourceAlpha" type="matrix" values="0 0 0 0 0 0 0 0 0 0 0 0 0 0 0 0 0 0 127 0" result="hardAlpha"/>
<feOffset dy="-0.197581"/>
<feComposite in2="hardAlpha" operator="arithmetic" k2="-1" k3="1"/>
<feColorMatrix type="matrix" values="0 0 0 0 0 0 0 0 0 0 0 0 0 0 0 0 0 0 0.08 0"/>
<feBlend mode="normal" in2="shape" result="effect1_innerShadow_1095_1937"/>
</filter>
<linearGradient id="paint0_linear_1095_1937" x1="66.0953" y1="43.123" x2="43.9899" y2="65.2283" gradientUnits="userSpaceOnUse">
<stop stop-color="#00A0FF"/>
<stop offset="0.0066" stop-color="#00A1FF"/>
<stop offset="0.2601" stop-color="#00BEFF"/>
<stop offset="0.5122" stop-color="#00D2FF"/>
<stop offset="0.7604" stop-color="#00DFFF"/>
<stop offset="1" stop-color="#00E3FF"/>
</linearGradient>
<linearGradient id="paint1_linear_1095_1937" x1="81.9508" y1="57.9996" x2="50.0799" y2="57.9996" gradientUnits="userSpaceOnUse">
<stop stop-color="#FFE000"/>
<stop offset="0.4087" stop-color="#FFBD00"/>
<stop offset="0.7754" stop-color="#FFA500"/>
<stop offset="1" stop-color="#FF9C00"/>
</linearGradient>
<linearGradient id="paint2_linear_1095_1937" x1="70.0814" y1="61.0215" x2="40.1038" y2="90.9991" gradientUnits="userSpaceOnUse">
<stop stop-color="#FF3A44"/>
<stop offset="1" stop-color="#C31162"/>
</linearGradient>
<linearGradient id="paint3_linear_1095_1937" x1="46.9898" y1="31.8854" x2="60.3757" y2="45.2712" gradientUnits="userSpaceOnUse">
<stop stop-color="#32A071"/>
<stop offset="0.0685" stop-color="#2DA771"/>
<stop offset="0.4762" stop-color="#15CF74"/>
<stop offset="0.8009" stop-color="#06E775"/>
<stop offset="1" stop-color="#00F076"/>
</linearGradient>
</defs>
</svg>
