<svg width="70" height="70" viewBox="0 0 70 70" fill="none" xmlns="http://www.w3.org/2000/svg">
<g clip-path="url(#clip0_1095_532)">
<path d="M42.2915 36.4596C42.2915 40.4876 39.0277 43.7513 34.9998 43.7513C30.9719 43.7513 27.7081 40.4876 27.7081 36.4596C27.7081 32.4317 30.9719 29.168 34.9998 29.168C39.0277 29.168 42.2915 32.4317 42.2915 36.4596ZM63.2361 33.3301L55.6411 44.183C54.5502 45.7405 52.7652 46.6709 50.8636 46.6709H19.139C17.2373 46.6709 15.4494 45.7434 14.3615 44.183L6.76648 33.3301C5.84481 32.0117 4.02481 31.6909 2.70356 32.6126C1.38231 33.5342 1.0644 35.3542 1.98606 36.6755L9.58106 47.5284C11.7627 50.6434 15.3356 52.5042 19.139 52.5042H23.3331V67.0876C23.3331 68.7005 24.6398 70.0042 26.2498 70.0042H43.7498C45.3598 70.0042 46.6665 68.7005 46.6665 67.0876V52.5042H50.8606C54.664 52.5042 58.2369 50.6434 60.4186 47.5284L68.0136 36.6755C68.9352 35.3571 68.6173 33.5371 67.2961 32.6126C65.9777 31.6938 64.1636 32.0117 63.2361 33.3301ZM26.2498 14.5846H32.0831V17.3526C32.0831 18.8576 33.9002 19.6101 34.9648 18.5455L40.1186 13.3917C41.0723 12.438 41.0723 10.8951 40.1186 9.94131L34.9648 4.78756C33.9002 3.72298 32.0831 4.47839 32.0831 5.98047V8.74839H26.2498C24.6398 8.74839 23.3331 10.0521 23.3331 11.6651C23.3331 13.278 24.6398 14.5846 26.2498 14.5846ZM68.1827 19.7851C67.6402 20.7096 66.6661 21.223 65.6656 21.223C65.164 21.223 64.6536 21.0946 64.1898 20.8205L63.7902 20.5842C62.6615 21.6313 61.2994 22.4013 59.7886 22.8563V23.3317C59.7886 24.9446 58.4819 26.2484 56.8719 26.2484C55.2619 26.2484 53.9552 24.9446 53.9552 23.3317V22.8563C52.4473 22.4013 51.0823 21.6313 49.9536 20.5842L49.554 20.8205C49.0902 21.0946 48.5827 21.223 48.0781 21.223C47.0777 21.223 46.1036 20.7096 45.5611 19.7851C44.7444 18.3967 45.2081 16.6088 46.5965 15.7921L46.9873 15.5617C46.7948 14.7771 46.6606 13.9692 46.6606 13.1263C46.6606 12.2834 46.7919 11.4755 46.9873 10.6909L46.5965 10.4605C45.2081 9.64381 44.7444 7.85297 45.5611 6.46756C46.3777 5.07339 48.1656 4.61256 49.554 5.43214L49.9536 5.66839C51.0823 4.62131 52.4444 3.85131 53.9552 3.39631V2.92089C53.9552 1.30798 55.2619 0.00422573 56.8719 0.00422573C58.4819 0.00422573 59.7886 1.30798 59.7886 2.92089V3.39631C61.2965 3.85131 62.6615 4.62131 63.7902 5.66839L64.1898 5.43214C65.5781 4.61839 67.3661 5.07631 68.1827 6.46756C68.9994 7.85589 68.5356 9.64381 67.1473 10.4605L66.7565 10.6909C66.949 11.4755 67.0831 12.2834 67.0831 13.1263C67.0831 13.9692 66.9519 14.7771 66.7565 15.5617L67.1473 15.7921C68.5356 16.6088 68.9994 18.3996 68.1827 19.7851ZM61.2498 13.1263C61.2498 10.7142 59.2869 8.75131 56.8748 8.75131C54.4627 8.75131 52.4998 10.7142 52.4998 13.1263C52.4998 15.5384 54.4627 17.5013 56.8748 17.5013C59.2869 17.5013 61.2498 15.5384 61.2498 13.1263ZM8.66523 26.2513H11.5819C13.1919 26.2513 14.4986 24.9446 14.4986 23.3346V20.418H5.74856V23.3346C5.74856 24.9446 7.05523 26.2513 8.66523 26.2513ZM4.29023 17.5013H15.9569C18.8736 16.043 20.3319 13.0067 20.3319 10.2096C20.3319 7.08006 18.9261 4.16631 16.4731 2.21214C14.0202 0.263809 10.8352 -0.444941 7.72315 0.275476C4.0044 1.13589 1.04398 4.09631 0.186481 7.81798C-0.641852 11.4113 1.37356 16.043 4.29023 17.5013Z" fill="white"/>
</g>
<defs>
<clipPath id="clip0_1095_532">
<rect width="70" height="70" fill="white"/>
</clipPath>
</defs>
</svg>
