<svg width="70" height="70" viewBox="0 0 70 70" fill="none" xmlns="http://www.w3.org/2000/svg">
<g clip-path="url(#clip0_1095_536)">
<path d="M35 0C28.0777 0 21.3108 2.05271 15.5551 5.89856C9.79934 9.74441 5.3133 15.2107 2.66423 21.6061C0.015165 28.0015 -0.677952 35.0388 0.672531 41.8282C2.02301 48.6175 5.35644 54.8539 10.2513 59.7487C15.1461 64.6436 21.3825 67.977 28.1719 69.3275C34.9612 70.678 41.9985 69.9848 48.3939 67.3358C54.7893 64.6867 60.2556 60.2007 64.1014 54.445C67.9473 48.6892 70 41.9223 70 35C69.99 25.7205 66.2993 16.8239 59.7377 10.2623C53.1761 3.70075 44.2795 0.0100365 35 0ZM60.2204 20.4167H50.8258C48.7228 15.5429 45.9538 10.9844 42.5979 6.87167C50.0252 8.8927 56.3568 13.7593 60.2204 20.4167ZM48.125 35C48.1011 37.9696 47.6331 40.9189 46.7367 43.75H23.2633C22.3669 40.9189 21.899 37.9696 21.875 35C21.899 32.0304 22.3669 29.0811 23.2633 26.25H46.7367C47.6331 29.0811 48.1011 32.0304 48.125 35ZM25.6025 49.5833H44.3975C41.922 54.4709 38.7571 58.9775 35 62.965C31.2415 58.9786 28.0765 54.4718 25.6025 49.5833ZM25.6025 20.4167C28.0781 15.5291 31.2429 11.0225 35 7.035C38.7585 11.0214 41.9235 15.5282 44.3975 20.4167H25.6025ZM27.4167 6.87167C24.0557 10.9835 21.2817 15.542 19.1742 20.4167H9.7796C13.6467 13.7563 19.984 8.88928 27.4167 6.87167ZM7.17793 26.25H17.2083C16.4522 29.1058 16.0602 32.0458 16.0417 35C16.0602 37.9542 16.4522 40.8942 17.2083 43.75H7.17793C5.38518 38.0544 5.38518 31.9456 7.17793 26.25ZM9.7796 49.5833H19.1742C21.2817 54.458 24.0557 59.0165 27.4167 63.1283C19.984 61.1107 13.6467 56.2437 9.7796 49.5833ZM42.5979 63.1283C45.9538 59.0156 48.7228 54.4571 50.8258 49.5833H60.2204C56.3568 56.2407 50.0252 61.1073 42.5979 63.1283ZM62.8221 43.75H52.7917C53.5478 40.8942 53.9398 37.9542 53.9583 35C53.9398 32.0458 53.5478 29.1058 52.7917 26.25H62.8163C64.609 31.9456 64.609 38.0544 62.8163 43.75H62.8221Z" fill="white"/>
</g>
<defs>
<clipPath id="clip0_1095_536">
<rect width="70" height="70" fill="white"/>
</clipPath>
</defs>
</svg>
