<svg width="70" height="70" viewBox="0 0 70 70" fill="none" xmlns="http://www.w3.org/2000/svg">
<g clip-path="url(#clip0_1095_540)">
<path d="M27.7083 7.29167C27.7083 3.26375 30.9721 0 35 0C39.0279 0 42.2917 3.26375 42.2917 7.29167C42.2917 11.3196 39.0279 14.5833 35 14.5833C30.9721 14.5833 27.7083 11.3196 27.7083 7.29167ZM61.25 8.75C56.4258 8.75 52.5 12.6758 52.5 17.5V32.62C51.7242 32.3458 50.9192 32.1417 50.0733 32.095C47.7604 31.9725 45.5029 32.7542 43.7354 34.3379L34.9592 42.4142C34.7171 42.1692 34.4925 41.9125 34.2388 41.6763L26.2354 34.3117C24.4942 32.7542 22.2279 31.9754 19.9267 32.095C19.0808 32.1417 18.2758 32.3458 17.5 32.62V17.5C17.5 12.6758 13.5742 8.75 8.75 8.75C3.92583 8.75 0 12.6758 0 17.5V46.9613C0 53.1942 2.42667 59.0537 6.83375 63.4608L12.5213 69.1483C13.09 69.7171 13.8367 70.0029 14.5833 70.0029C15.33 70.0029 16.0767 69.7171 16.6454 69.1483C17.7858 68.0079 17.7858 66.1617 16.6454 65.0242L10.9579 59.3367C7.65333 56.0321 5.83333 51.6367 5.83333 46.9613V17.5C5.83333 15.8929 7.14 14.5833 8.75 14.5833C10.36 14.5833 11.6667 15.8929 11.6667 17.5C11.6667 17.5 11.6521 41.055 11.6667 41.1717C11.7542 43.0821 12.4979 44.9896 13.8425 46.5879L21.4725 54.5242C22.5867 55.685 24.4329 55.7229 25.5967 54.6029C26.7546 53.4858 26.7925 51.6396 25.6754 50.4787L18.1767 42.6912C17.255 41.5917 17.2813 39.9554 18.2408 38.885C18.7571 38.3075 19.4688 37.9663 20.2446 37.9225C21.0117 37.87 21.7642 38.1413 22.3154 38.6342L30.2867 45.9725C33.2792 48.7258 34.9971 52.64 34.9971 56.7058V67.0863C34.9971 68.6963 36.3008 70.0029 37.9137 70.0029C39.5267 70.0029 40.8304 68.6963 40.8304 67.0863V56.7058C40.8304 53.3458 39.9729 50.0704 38.4271 47.1508L47.6525 38.6604C48.23 38.1413 48.9796 37.87 49.7525 37.9225C50.5283 37.9663 51.24 38.3075 51.7563 38.885C52.2229 39.4042 53.0425 41.4517 51.9517 42.5425L44.5638 50.225C43.4467 51.3858 43.4846 53.2321 44.6425 54.3492C45.2083 54.8946 45.9346 55.1629 46.6637 55.1629C47.4308 55.1629 48.1921 54.8625 48.7667 54.2675L56.2858 46.4362C57.5983 44.8729 58.2867 42.9508 58.3304 41.02C58.3363 40.9529 58.3304 17.4971 58.3304 17.4971C58.3304 15.89 59.6371 14.5804 61.2471 14.5804C62.8571 14.5804 64.1637 15.89 64.1637 17.4971V46.9583C64.1637 51.6338 62.3438 56.0263 59.0392 59.3338L53.3517 65.0212C52.2113 66.1588 52.2113 68.005 53.3517 69.1454C53.9204 69.7142 54.6671 70 55.4138 70C56.1604 70 56.9071 69.7142 57.4758 69.1454L63.1633 63.4579C67.5704 59.0508 69.9971 53.1913 69.9971 46.9583V17.5C69.9971 12.6758 66.0742 8.75 61.25 8.75ZM30.1263 29.9658L32.6463 32.2846C33.9762 33.5096 36.0238 33.5096 37.3538 32.2846L39.7863 30.0475C41.7375 28.3004 44.1117 27.1688 46.6054 26.635C46.62 26.6117 46.6287 26.6 46.6433 26.5767C45.4388 21.3792 40.6846 17.5 35.0029 17.5C29.3213 17.5 24.57 21.3762 23.3625 26.5708C23.3771 26.5942 23.3829 26.6058 23.3975 26.6262C25.8213 27.1308 28.1546 28.1983 30.1292 29.9629L30.1263 29.9658Z" fill="white"/>
</g>
<defs>
<clipPath id="clip0_1095_540">
<rect width="70" height="70" fill="white"/>
</clipPath>
</defs>
</svg>
