<svg width="45" height="44" viewBox="0 0 45 44" fill="none" xmlns="http://www.w3.org/2000/svg">
<path d="M22.9854 0H22.8853C10.7682 0 0.945312 9.82572 0.945312 21.9464V22.0465C0.945312 34.1672 10.7682 43.9929 22.8853 43.9929H22.9854C35.1025 43.9929 44.9254 34.1672 44.9254 22.0465V21.9464C44.9254 9.82572 35.1025 0 22.9854 0Z" fill="white"/>
<path d="M27.232 28.4371C21.6034 28.4371 17.024 23.8549 17.0225 18.2245C17.024 16.7973 18.1858 15.6367 19.6095 15.6367C19.7559 15.6367 19.9007 15.649 20.0394 15.6737C20.3445 15.7246 20.6342 15.8278 20.9008 15.9835C20.9393 16.0066 20.9655 16.0436 20.9716 16.0868L21.5664 19.8367C21.5741 19.8799 21.5602 19.9246 21.5309 19.9569C21.2027 20.3207 20.7836 20.5827 20.3168 20.7137L20.0918 20.7769L20.1765 20.9942C20.9439 22.9486 22.5063 24.5099 24.4616 25.2805L24.6789 25.3669L24.742 25.1418C24.873 24.6748 25.135 24.2556 25.4986 23.9273C25.5248 23.9026 25.5602 23.8903 25.5957 23.8903C25.6034 23.8903 25.6111 23.8903 25.6203 23.8918L29.3692 24.4868C29.4139 24.4945 29.4509 24.5191 29.474 24.5577C29.628 24.8243 29.7313 25.1156 29.7837 25.4208C29.8083 25.5564 29.8191 25.6998 29.8191 25.8493C29.8191 27.275 28.6589 28.4356 27.232 28.4371Z" fill="#0093D5"/>
<path d="M37.1778 20.7598C36.8743 17.3289 35.3027 14.1462 32.7526 11.7988C30.1871 9.43757 26.8589 8.13672 23.3781 8.13672C15.7387 8.13672 9.52293 14.3543 9.52293 21.996C9.52293 24.5607 10.2302 27.0591 11.5691 29.2354L8.58301 35.8475L18.1439 34.8287C19.8065 35.5099 21.5661 35.8552 23.3766 35.8552C23.8527 35.8552 24.3411 35.8305 24.8311 35.7797C25.2626 35.7334 25.6986 35.6656 26.127 35.5793C32.5245 34.2862 37.1948 28.6065 37.2318 22.0699V21.996C37.2318 21.5798 37.2133 21.1637 37.1763 20.7614L37.1778 20.7598ZM18.5122 31.9265L13.2225 32.4906L14.8018 28.9903L14.486 28.5665C14.4628 28.5356 14.4397 28.5048 14.4135 28.4694C13.0422 26.5751 12.318 24.3372 12.318 21.9975C12.318 15.8971 17.2795 10.9342 23.3781 10.9342C29.0915 10.9342 33.9344 15.3931 34.4013 21.0851C34.4259 21.3902 34.4398 21.6969 34.4398 21.999C34.4398 22.0854 34.4382 22.1701 34.4367 22.2611C34.3196 27.3643 30.7556 31.6984 25.7695 32.8019C25.3889 32.8867 24.9991 32.9514 24.6108 32.993C24.2071 33.0393 23.7926 33.0624 23.3812 33.0624C21.9159 33.0624 20.4921 32.7788 19.147 32.2178C18.9975 32.1576 18.8511 32.0929 18.714 32.0266L18.5137 31.9295L18.5122 31.9265Z" fill="#0093D5"/>
</svg>
