<svg width="45" height="44" viewBox="0 0 45 44" fill="none" xmlns="http://www.w3.org/2000/svg">
<path d="M44.9394 21.9972C44.9394 33.1068 36.7068 42.2913 26.0118 43.7818C25.0118 43.9205 23.9887 43.9929 22.9502 43.9929C21.7514 43.9929 20.5742 43.8974 19.4278 43.7124C8.95787 42.0262 0.960938 32.945 0.960938 21.9972C0.960938 9.84881 10.8069 0 22.9517 0C35.0966 0 44.9425 9.84881 44.9425 21.9972H44.9394Z" fill="white"/>
<path d="M9.88154 9.70312L20.0233 23.2664L9.81836 34.2943H12.1158L21.0511 24.6397L28.2699 34.2943H36.0865L25.3746 19.9681L34.8739 9.70312H32.5765L24.3484 18.5948L17.6997 9.70312H9.88306H9.88154ZM13.259 11.3955H16.8492L32.7059 32.602H29.1158L13.259 11.3955Z" fill="#0093D5"/>
</svg>
