<svg width="45" height="44" viewBox="0 0 45 44" fill="none" xmlns="http://www.w3.org/2000/svg">
<path d="M44.7771 21.934C44.7771 9.8202 34.9598 0 22.8495 0C10.7392 0 0.921875 9.8202 0.921875 21.934C0.921875 34.0479 10.7392 43.8681 22.8495 43.8681C34.9598 43.8681 44.7771 34.0479 44.7771 21.934Z" fill="white"/>
<path d="M36.6839 17.3817C36.5113 15.7155 36.14 13.8737 34.7733 12.9058C33.7147 12.1552 32.3233 12.1274 31.0244 12.129C28.2786 12.129 25.5313 12.1336 22.7855 12.1351C20.1446 12.1382 17.5036 12.1398 14.8626 12.1428C13.7593 12.1428 12.6869 12.0581 11.6622 12.5359C10.7824 12.9458 10.0937 13.7257 9.67919 14.5935C9.10446 15.8003 8.98428 17.1674 8.91494 18.5022C8.78705 20.9328 8.80092 23.3696 8.95346 25.7986C9.06595 27.5711 9.351 29.5301 10.7208 30.6598C11.935 31.6601 13.6484 31.7095 15.2231 31.711C20.2216 31.7156 25.2216 31.7202 30.2216 31.7233C30.8626 31.7249 31.5313 31.7125 32.1846 31.6416C33.4697 31.5029 34.6947 31.1345 35.5205 30.182C36.3541 29.2218 36.5683 27.8855 36.6947 26.6201C37.0028 23.5499 36.9998 20.4504 36.6839 17.3817ZM19.8949 26.2302V17.6221L27.3464 21.9254L19.8949 26.2302Z" fill="#0093D5"/>
</svg>
